<svg xmlns="http://www.w3.org/2000/svg" xmlns:xlink="http://www.w3.org/1999/xlink" id="Layer_1" x="0px" y="0px" width="317.4px" height="119.6px" viewBox="0 0 317.4 119.6" style="enable-background:new 0 0 317.4 119.6;" xml:space="preserve">  <g>	<g>		<path d="M43.8,76c-3.1,5.1-8.1,7.7-14.8,7.7c-6.6,0-11.6-2.6-14.7-7.7c3.8,1.9,8.7,3,14.7,3C35.1,79,40,78,43.8,76"></path>		<path d="M29.1,40.6c-6,0-10.9,1-14.7,2.9c3.1-5.1,8-7.7,14.6-7.7s11.6,2.6,14.7,7.7C40,41.6,35.1,40.6,29.1,40.6"></path>		<path d="M14.3,43.5c-2.4,3.9-3.6,9.4-3.6,16.3s1.2,12.3,3.6,16.2c-6.1-3.1-9.2-8.7-9.2-16.3C5.1,52.1,8.2,46.6,14.3,43.5"></path>		<path d="M53,59.7c0,7.6-3.1,13.2-9.2,16.3c2.4-3.9,3.6-9.4,3.6-16.2c0-6.9-1.3-12.3-3.7-16.3C49.9,46.6,53,52.1,53,59.7"></path>		<path d="M58.2,71.5L58.2,71.5l4.9-0.1v0.4c0,5.7,3.4,7.8,11.8,7.8c7.7,0,10.3-1.8,10.3-5.7c0-3.6-2.1-4.8-7.8-5.7l-9.1-1.3    c-6.2-0.8-10.2-3.3-10.2-8.9c0-6,5.7-9.8,15.2-9.8c9.8,0,16.2,4.1,16.2,12.2v0.1h-4.9v-0.3c0-5.1-2.7-7.9-11.4-7.9    C66,52.3,63,54,63,58.1c0,3.5,1.8,4.8,7.5,5.6l8.4,1.2c7.3,1,11.3,3.5,11.3,9.1c0,6.4-6.4,9.8-15.2,9.8    C64.3,83.6,58.2,79.4,58.2,71.5"></path>		<path d="M110.6,82.9c-6.8,0-11.1-2.8-11.1-10.9V53h-6.1v-4.2h6.1v-8.2h5v8.2H118V53h-13.6v19.4c0,4.8,2.4,6.1,7.3,6.1h6.2V83    L110.6,82.9L110.6,82.9z"></path>		<path d="M182.9,79.2c-9.4,0-13.7-5.1-13.7-13.4c0-8.2,4.3-13.4,13.7-13.4s13.8,5.1,13.8,13.4S192.3,79.2,182.9,79.2 M182.9,48.1    c-11.1,0-18.5,7.4-18.5,17.8s7.4,17.8,18.5,17.8c11.2,0,18.6-7.4,18.6-17.8S194.1,48.1,182.9,48.1"></path>		<path d="M221,82.9c-6.8,0-11.1-2.8-11.1-10.9V53h-6.1v-4.2h6.1v-8.2h5v8.2h13.6V53h-13.6v19.4c0,4.8,2.4,6.1,7.3,6.1h6.2V83    L221,82.9L221,82.9z"></path>		<path d="M237.8,63.5c0.7-7,5-11.2,13.6-11.2c8.6,0,13,4.3,13.7,11.2H237.8z M268.7,67.7h1.2c0.1-0.7,0.1-1.4,0.1-2.1    s0-1.4-0.1-2.1c-0.9-9.3-8.1-15.7-18.5-15.7c-11.1,0-18.5,7.4-18.5,17.8s7.4,17.8,18.5,17.8c8.8,0,15.2-4.5,17.6-11.5h-4.9    c-1.8,4.5-6,7-12.7,7c-8.6,0-12.9-4.2-13.6-11.2h27.3H268.7z"></path>		<path d="M127.2,63.5c0.7-7,5-11.2,13.6-11.2s13,4.3,13.7,11.2H127.2z M158.1,67.7h1.2c0.1-0.7,0.1-1.4,0.1-2.1s0-1.4-0.1-2.1    c-0.9-9.3-8.1-15.7-18.5-15.7c-11.1,0-18.5,7.4-18.5,17.8s7.4,17.8,18.5,17.8c8.8,0,15.2-4.5,17.6-11.5h-4.9c-1.8,4.5-6,7-12.7,7    c-8.6,0-12.9-4.2-13.6-11.2h27.3H158.1z"></path>		<path d="M306.5,71.7c-1.8,4.6-5.9,7.3-12.8,7.3c-1.2,0-2.3-0.1-3.4-0.2l0,0c-4.9-0.8-8-3.3-9.4-7.2l0,0c-0.6-1.7-0.9-3.7-0.9-5.9    c0-2,0.3-3.9,0.8-5.5c1.4-4.1,4.5-6.8,9.6-7.6l0,0c1-0.2,2.1-0.2,3.3-0.2c8.1,0,12.4,3.8,13.5,10c0.1,0.3,0.1,0.6,0.1,1h4.8    c-1-9.1-8.1-15.4-18.5-15.4c-0.1,0-0.1,0-0.2,0c-10.7,0.1-17.9,7-18.3,16.8c0,0.3,0,0.6,0,1s0,0.6,0,1c0.4,9.8,7.6,16.7,18.3,16.8    c0.1,0,0.1,0,0.2,0c8.9,0,15.3-4.6,17.7-11.7h-4.8V71.7z"></path>	</g></g></svg>